<?xml version="1.0" encoding="utf-8"?>
<!-- Generator: Adobe Illustrator 25.4.0, SVG Export Plug-In . SVG Version: 6.00 Build 0)  -->
<svg version="1.1" id="Layer_1_copy_3" xmlns="http://www.w3.org/2000/svg" xmlns:xlink="http://www.w3.org/1999/xlink" x="0px"
	 y="0px" viewBox="0 0 512 512" style="enable-background:new 0 0 512 512;" xml:space="preserve">
<style type="text/css">
	.st0{fill:#FEDF57;}
</style>
<path class="st0" d="M256,0C114.62,0,0,114.62,0,256s114.62,256,256,256s256-114.62,256-256S397.38,0,256,0z M360.35,353.63
	c-53.81,47-135.53,41.48-182.53-12.32c-10.55-12.07-18.75-26-24.21-41.07h-24.86c-9.43,0-17.07-7.64-17.07-17.07
	c0-9.43,7.64-17.07,17.07-17.07h17.44c-0.25-3.28-0.55-6.69-0.55-10.1c0-3.41,0.25-6.83,0.51-10.15h-17.41
	c-9.43,0-17.07-7.64-17.07-17.07c0-9.43,7.64-17.07,17.07-17.07h24.86c18.62-51.1,67.16-85.13,121.54-85.23
	c29.02-0.1,57.22,9.64,79.99,27.65c7.56,5.63,9.13,16.32,3.5,23.88c-5.63,7.56-16.32,9.13-23.88,3.5c-0.24-0.18-0.48-0.36-0.71-0.55
	c-16.77-13.25-37.53-20.42-58.9-20.34c-35.44,0.04-67.94,19.71-84.4,51.1h71.01c9.43,0,17.07,7.64,17.07,17.07
	c0,9.43-7.64,17.07-17.07,17.07h-81.39c-0.38,3.37-0.57,6.76-0.59,10.15c0.01,3.36,0.18,6.72,0.53,10.06h81.44
	c9.43,0,17.07,7.64,17.07,17.07s-7.64,17.07-17.07,17.07h-71c24.34,46.67,81.9,64.77,128.57,40.43c6.68-3.48,12.93-7.75,18.6-12.71
	c7.1-6.2,17.88-5.47,24.08,1.63c6.2,7.1,5.47,17.88-1.63,24.08H360.35z"/>
</svg>
