<?xml version="1.0" encoding="utf-8"?>
<!-- Generator: Adobe Illustrator 25.4.0, SVG Export Plug-In . SVG Version: 6.00 Build 0)  -->
<svg version="1.1" id="Layer_1" xmlns="http://www.w3.org/2000/svg" xmlns:xlink="http://www.w3.org/1999/xlink" x="0px" y="0px"
	 viewBox="0 0 500 500" style="enable-background:new 0 0 500 500;" xml:space="preserve">
<style type="text/css">
	.st0{fill:#C3FE57;}
	.st1{fill:#6B7951;}
</style>
<g>
	<circle class="st0" cx="250" cy="250" r="250"/>
</g>
<g>
	<path class="st1" d="M161.49,116.42c7.17,0,13.53,0,20.38,0c0,42.13,0,84.26,0,126.95c98.92,0,197.35,0,296.13,0
		c0,7,0,13.46,0,20.5c-45.37,0-90.86,0-136.89,0c0,40.2,0,79.81,0,119.7c-7.12,0-13.69,0-20.63,0c0-39.75,0-79.4,0-119.5
		c-99.65,0-198.93,0-298.47,0c0-6.9,0-13.35,0-20.31c46.35,0,92.68,0,139.49,0C161.49,201.13,161.49,159,161.49,116.42z"/>
</g>
</svg>
